# xmcd
#
# Track frame offsets: 
#        150
#        12800
#        25832
#        37969
#        51842
#        65855
#        79472
#        92135
#        105282
#        116087
#        128928
#        142051
#        155778
#        168043
#        181709
#        195675
#        208752
#        218281
#        227235
#        239593
#        252628
#        262760
#        273001
#        288606
#        310713
#        322746
#
# Disc length: 4473 seconds
#
# Revision: 1
# Processed by: cddbd v1.5.2PL0 Copyright (c) Steve Scherf et al.
# Submitted via: ExactAudioCopy v1.0b1
#
DISCID=6f11771a
DTITLE=Little Walter - The Complete Chess Masters 1950-1967 [CD3]
DYEAR=2009
DGENRE=Blues
TTITLE0=Thunderbird
TTITLE1=Roller Coaster
TTITLE2=I Got To Go
TTITLE3=Hate To See You Go (extended)
TTITLE4=Little Girl
TTITLE5=Crazy For My Baby
TTITLE6=Can't Stop Loving You
TTITLE7=One More Chance With You
TTITLE8=Who
TTITLE9=Boom, Boom Out Go The Lights
TTITLE10=It Ain't Right
TTITLE11=Flying Saucer
TTITLE12=It's Too Late Brother
TTITLE13=Teenage Beat
TTITLE14=Take Me Back
TTITLE15=Just A Feeling
TTITLE16=Nobody But You
TTITLE17=Temperature (version 1)
TTITLE18=Shake Dancer
TTITLE19=Everybody Needs Somebody
TTITLE20=Temperature (version 2) (alt 1)
TTITLE21=Temperature (version 2) (alt 2)
TTITLE22=Temperature (version 2) (alt - take 30)
TTITLE23=Temperature (version 2) (alt - takes 35-38)
TTITLE24=Temperature (version 2 - master)
TTITLE25=Ah'w Baby (alt)
EXTD=
EXTT0=
EXTT1=
EXTT2=
EXTT3=
EXTT4=
EXTT5=
EXTT6=
EXTT7=
EXTT8=
EXTT9=
EXTT10=
EXTT11=
EXTT12=
EXTT13=
EXTT14=
EXTT15=
EXTT16=
EXTT17=
EXTT18=
EXTT19=
EXTT20=
EXTT21=
EXTT22=
EXTT23=
EXTT24=
EXTT25=
PLAYORDER=
